<svg width="42" height="41" viewBox="0 0 42 41" fill="none" xmlns="http://www.w3.org/2000/svg">
<path d="M18.4403 0.087265C12.377 0.599731 6.79244 3.44591 3.32905 7.79796C1.6959 9.85572 0.466352 12.7019 0.0909168 15.2879C-0.0498716 16.2734 -0.0217139 18.1341 0.137846 18.9304C1.15152 23.7791 6.86753 30.6226 16.0469 37.9706C17.9335 39.4765 18.3559 39.7761 18.9472 40.0284C19.6136 40.3043 19.698 40.3201 20.5522 40.3201C21.4063 40.3201 21.4907 40.3043 22.1571 40.0284C22.7485 39.7761 23.1708 39.4765 25.0574 37.9706C31.0174 33.2007 35.8136 28.3362 38.4604 24.3547C39.7651 22.3836 40.5441 20.7201 40.9289 19.0644C41.1354 18.1735 41.173 16.3996 41.0134 15.2879C40.6661 12.8675 39.5961 10.2736 38.1319 8.27101C36.9962 6.72572 35.1284 4.95178 33.4484 3.80858C29.2623 0.986057 23.8184 -0.370018 18.4403 0.087265ZM23.5556 1.37238C28.5208 2.06618 32.9509 4.32105 35.9169 7.67181C37.8973 9.90303 39.0799 12.3235 39.568 15.1302C39.7932 16.4784 39.7182 18.4494 39.3803 19.5059C37.9161 24.1733 32.6787 30.1889 23.9405 37.2295C22.7766 38.1598 21.838 38.8536 21.594 38.9561C21.0308 39.1848 20.402 39.2242 19.8201 39.0586C19.2569 38.9088 17.9992 37.9627 15.2116 35.6211C9.2797 30.6462 5.39395 26.4519 3.18826 22.6596C1.81792 20.318 1.40494 19.0092 1.40494 17.0618C1.40494 9.87149 7.45884 3.44591 15.9155 1.65621C16.6289 1.50641 18.1306 1.28565 18.9096 1.22258C19.698 1.15951 22.7015 1.25412 23.5556 1.37238Z" fill="#FFB60A"/>
<path d="M18.9565 4.41534C15.4556 4.75436 12.4427 5.9291 9.90852 7.95532C7.62775 9.78444 6.11662 12.063 5.42207 14.7593C5.24373 15.4531 5.21558 15.8 5.21558 17.298C5.21558 18.796 5.24373 19.1429 5.42207 19.8288C5.88197 21.5949 6.79241 23.3688 7.94687 24.7486C8.8573 25.8287 10.6031 27.2636 11.8608 27.9732C15.3242 29.9127 19.0504 30.6065 23.1332 30.0625C23.6495 29.9915 24.2032 29.889 24.3722 29.8338C24.8602 29.6604 24.9259 29.1085 24.4848 28.8325C24.2502 28.6827 24.2314 28.6827 23.1708 28.8562C21.7723 29.0927 19.454 29.1085 18.1118 28.8956C15.2303 28.4305 12.7149 27.3188 10.65 25.5764C9.3266 24.4726 7.83424 22.6356 8.1252 22.4779C8.18152 22.4464 9.28905 21.6816 10.5749 20.7828C12.1048 19.7185 12.9495 19.0799 12.9871 18.9537C13.1185 18.528 12.5366 18.0864 12.0767 18.2678C11.964 18.3072 10.8753 19.0404 9.66449 19.884L7.4588 21.4214L7.3274 21.177C7.12091 20.7671 6.77363 19.5292 6.65162 18.7803C6.48267 17.7159 6.5953 15.7606 6.87688 14.7357C8.06889 10.5177 11.6825 7.26152 16.5443 6.03159C17.9804 5.66892 18.8908 5.55854 20.5521 5.55854C22.373 5.55854 23.3679 5.69257 24.9729 6.14197C26.8688 6.67021 28.5583 7.49804 29.9568 8.57817C30.8015 9.24044 31.1206 9.33505 31.4773 9.03545C31.9184 8.6649 31.8246 8.44414 30.9423 7.74245C27.8543 5.29048 23.2271 4.00537 18.9565 4.41534Z" fill="#FFB60A"/>
<path d="M23.931 9.82408C23.3209 10.0133 22.5044 10.715 22.2885 11.259C21.913 12.213 22.2979 13.2852 23.2271 13.8844C24.6537 14.799 26.6341 14.4048 27.4789 13.0408C27.8355 12.4574 27.8355 11.6374 27.4695 11.0146C27.1504 10.4706 26.5215 9.98176 25.9302 9.81619C25.3858 9.65851 24.4848 9.66639 23.931 9.82408ZM25.6205 10.9909C26.4746 11.3615 26.5966 12.3628 25.8551 12.9068C25.245 13.3641 24.2783 13.2694 23.7996 12.7097C23.5274 12.3943 23.4993 11.7636 23.7339 11.4403C24.1281 10.92 24.9822 10.715 25.6205 10.9909Z" fill="#FFB60A"/>
<path d="M32.3877 10.2102C32.1436 10.4704 32.1436 10.6044 32.3783 10.9513C32.8664 11.6688 33.5046 12.7804 33.7392 13.3166C34.2649 14.5544 34.4526 15.4453 34.5089 17.0379C34.537 17.8578 34.537 18.5201 34.4995 18.5201C34.462 18.5201 33.5797 17.9446 32.5378 17.2429C31.496 16.5333 30.4917 15.8947 30.3134 15.8237C29.9004 15.6424 29.3373 15.6503 28.8586 15.8316C28.6521 15.9183 27.6853 16.5333 26.7186 17.2192C25.4984 18.0628 24.9165 18.4255 24.8414 18.3782C24.7757 18.3388 23.4523 17.4557 21.9036 16.4072C20.3456 15.3664 18.9752 14.4913 18.8626 14.4598C18.4309 14.3415 17.7457 14.3967 17.3984 14.5701C16.7226 14.9092 14.0007 16.8644 13.9444 17.0615C13.813 17.4873 14.3949 17.9288 14.8548 17.7553C14.9675 17.708 15.7183 17.2113 16.5161 16.6516C17.3139 16.0918 18.0367 15.6109 18.1211 15.5872C18.2056 15.5557 18.3745 15.5951 18.5059 15.666C19.0503 15.9735 31.6274 24.4569 31.6274 24.5199C31.6274 24.5515 31.1769 24.9693 30.6231 25.4424C29.5062 26.3964 28.6145 26.9798 27.4038 27.5553C26.9626 27.7603 26.5309 27.9811 26.4464 28.0442C26.2118 28.2097 26.2305 28.6512 26.4652 28.8483C26.728 29.0691 27.0377 29.0454 27.7135 28.7616C31.0737 27.3425 33.9457 24.4963 35.1847 21.3742C35.776 19.8841 35.8886 19.2139 35.8886 17.2981C35.8886 15.3901 35.776 14.7199 35.1847 13.222C34.8374 12.3232 33.8988 10.699 33.5046 10.2969C33.1292 9.92638 32.688 9.88696 32.3877 10.2102ZM31.9653 18.3624C33.8237 19.6081 34.1992 19.8919 34.1804 20.0417C34.0677 20.6882 32.9978 22.8485 32.5472 23.3531C32.4346 23.4792 32.1436 23.2979 29.2528 21.3505C27.507 20.1758 26.0991 19.1981 26.1273 19.1745C26.5403 18.8197 29.4593 16.8644 29.5719 16.8644C29.6564 16.8644 30.7264 17.5425 31.9653 18.3624Z" fill="#FFB60A"/>
</svg>
