<svg width="47" height="41" viewBox="0 0 47 41" fill="none" xmlns="http://www.w3.org/2000/svg">
<path d="M25.6963 0.080761C25.5085 0.135979 25.2173 0.270084 25.0577 0.372635C24.9074 0.475185 22.0432 3.93036 18.6999 8.05605L12.6239 15.5501L10.9053 15.5738L9.18676 15.5896L9.23371 15.3371C9.26189 15.1952 9.44032 13.7831 9.61875 12.1975C9.79718 10.6119 9.96622 9.16833 9.99439 8.98689C10.0507 8.66346 10.0789 8.6398 10.7175 8.35581C11.3561 8.07182 12.2576 7.42496 12.6333 6.96743L12.8211 6.73867L15.5351 6.97532C17.3758 7.1252 18.3431 7.18042 18.5121 7.13309C19.038 6.98321 19.0756 6.3048 18.5685 6.12336C18.4464 6.07603 17.1128 5.94193 15.5915 5.81571C12.53 5.57117 12.2952 5.57906 11.8444 5.99715C11.6942 6.13125 11.3561 6.4389 11.0838 6.68344C10.802 6.94377 10.3982 7.21198 10.0695 7.34608C9.23371 7.68529 8.94259 7.89828 8.79233 8.26904C8.69842 8.47414 8.48243 10.0203 8.23826 12.095L7.83444 15.5896H7.39306H6.94229L6.98924 15.2898C7.01742 15.132 7.31793 12.6629 7.64662 9.8073C7.9847 6.94377 8.304 4.54566 8.35095 4.45889C8.49182 4.23801 8.75477 4.15123 9.26189 4.15123C9.50606 4.15123 12.0135 4.34845 14.8214 4.5851C19.3479 4.96375 19.9677 4.9953 20.1931 4.90064C20.6439 4.70343 20.6251 4.08024 20.1649 3.91458C20.0429 3.87514 18.39 3.71737 16.4742 3.55959C14.5679 3.40182 12.1262 3.20461 11.0462 3.10995C9.95683 3.02317 8.91442 2.97585 8.68903 2.99951C7.83444 3.10995 7.10194 3.72525 6.9329 4.49044C6.87655 4.71921 6.6136 6.80177 6.34126 9.121L5.85292 13.3414L4.66964 13.3887C3.65541 13.4202 3.42063 13.4597 3.0356 13.6253C2.23735 13.9724 1.78658 14.6272 1.77719 15.4713C1.7678 15.8499 1.74902 15.8736 1.32642 16.1023C1.09164 16.2285 0.753561 16.4889 0.584521 16.6782C-0.0446817 17.3724 -0.0165084 16.765 0.0116648 28.1402L0.0398381 38.4268L0.265224 38.837C0.537566 39.3577 1.30764 39.9651 1.91806 40.1702C2.37822 40.3201 2.86656 40.3201 22.2028 40.3201H42.018L42.5063 40.1307C43.0886 39.9099 43.7835 39.3182 44.0653 38.7976C44.2625 38.4426 44.2719 38.3164 44.3 35.4055L44.3282 32.3921H44.6757C45.4833 32.3921 46.197 32.0529 46.4412 31.548C46.5445 31.3429 46.5727 30.6014 46.5727 27.9745C46.5727 24.827 46.5633 24.6377 46.3849 24.3458C46.1031 23.8804 45.7087 23.6832 44.9574 23.6516L44.3188 23.6201V20.7644C44.3188 18.3663 44.2906 17.8378 44.1686 17.4828C43.9995 17.0095 43.6051 16.4731 43.2388 16.2364C43.0229 16.0944 43.0041 16.0234 43.0041 15.4949C43.0041 14.7928 42.7223 14.2328 42.1777 13.8541C41.7832 13.5859 41.0883 13.3808 40.5436 13.3808H40.1774L41.2761 12.0319C41.8865 11.2824 42.4312 10.5173 42.5063 10.3122C42.7317 9.68108 42.4876 8.93167 41.9053 8.48203C41.7644 8.37159 40.5248 7.63795 39.1537 6.85699C37.7826 6.07603 34.6366 4.26956 32.1574 2.84963C29.6781 1.4297 27.5276 0.214867 27.3773 0.151756C26.9923 -0.0139008 26.1283 -0.0533447 25.6963 0.080761ZM26.8608 1.24037C27.4336 1.49281 40.7408 9.16833 40.9662 9.36554C41.3794 9.7363 41.3137 9.92562 40.4027 11.0616C39.9426 11.6217 38.9471 12.868 38.1677 13.8304L36.759 15.5817L36.2143 15.5896H35.679L36.7778 14.2406C37.3788 13.4912 37.9235 12.7497 37.9986 12.5762C38.1395 12.2212 38.0831 11.953 37.6887 11.172C37.4727 10.7381 37.4258 10.533 37.407 9.8073C37.3882 9.10522 37.3412 8.90801 37.1816 8.69502C37.0501 8.50569 35.8856 7.79573 33.181 6.24958C31.0868 5.05053 29.2743 4.03291 29.1428 3.99346C28.7296 3.85936 28.2976 3.90669 27.5369 4.16701C26.8984 4.38789 26.6824 4.41944 25.7996 4.43522C24.6163 4.45889 24.2782 4.56144 23.8744 5.04264C23.7148 5.22407 21.7614 7.63007 19.5263 10.3832C17.2913 13.1362 15.4131 15.4397 15.3567 15.4949C15.2816 15.558 15.0656 15.5896 14.7557 15.5738L14.2861 15.5501L20.0053 8.48992C23.1513 4.60877 25.8184 1.36659 25.9217 1.2877C26.1471 1.13782 26.5791 1.11415 26.8608 1.24037ZM32.4391 7.21198L36.0077 9.2551L36.0641 10.115C36.111 10.7855 36.1768 11.0931 36.374 11.527C36.5148 11.8268 36.6369 12.1344 36.6463 12.1975C36.6557 12.2685 36.0734 13.0574 35.3503 13.9567L34.0356 15.5817L32.8617 15.5896H31.6784L31.5751 15.061C31.4249 14.3353 30.8144 13.3414 30.1758 12.7576C29.4997 12.1423 28.7766 11.7479 27.8093 11.4639C25.8466 10.8959 23.4988 11.3613 22.0526 12.6077C21.2449 13.3019 20.6345 14.288 20.4842 15.1399L20.4185 15.5501L18.6999 15.5738C17.3194 15.5896 16.9908 15.5738 17.0471 15.4949C17.0941 15.4397 18.9159 13.1836 21.1041 10.4778L25.0859 5.57117H25.9686C26.6448 5.57117 27.011 5.52383 27.5745 5.37395C27.9783 5.26352 28.3728 5.14519 28.4385 5.10574C28.523 5.05841 28.6451 5.05841 28.7202 5.09785C28.8047 5.1373 30.4764 6.08392 32.4391 7.21198ZM27.0862 12.4736C27.8469 12.6472 28.4761 12.9469 29.0489 13.4281C29.6406 13.9251 29.9974 14.4536 30.1758 15.1005L30.3073 15.5896H26.0438H21.7708L21.8366 15.2898C22.2685 13.294 24.7384 11.9609 27.0862 12.4736ZM5.68388 14.8086C5.65571 14.9427 5.62754 15.1794 5.62754 15.3214V15.5896H4.40669H3.18585V15.3056C3.18585 15.1005 3.26098 14.9664 3.45819 14.7928C3.73054 14.572 3.75871 14.5641 4.73538 14.5641H5.74962L5.68388 14.8086ZM41.2479 14.7297C41.5203 14.9033 41.7738 15.4791 41.633 15.5738C41.586 15.6054 40.8441 15.6211 39.9801 15.6054L38.4118 15.5817L38.8063 15.0768L39.2007 14.5641H40.1022C40.8723 14.5641 41.0413 14.5877 41.2479 14.7297ZM42.2246 17.0568C42.8162 17.4513 42.9102 17.6958 42.9102 18.8002V19.7705H22.1559H1.40155V18.7844C1.40155 18.0823 1.43911 17.7274 1.53302 17.5775C1.70206 17.3014 2.13405 16.9622 2.43457 16.8596C2.58482 16.8123 9.39336 16.7886 22.2685 16.7965L41.8584 16.8123L42.2246 17.0568ZM42.9102 22.2948V23.6359H39.3697C36.5336 23.6359 35.6978 23.6595 35.2189 23.7542C33.5754 24.0855 32.1668 25.1426 31.5469 26.5152C31.284 27.1068 31.1901 28.3138 31.3591 28.9291C31.7817 30.4594 33.1716 31.7058 35.0216 32.2028C35.463 32.3211 36.0453 32.3448 39.2289 32.3763L42.9102 32.4079V33.741V35.0742H26.025C9.21493 35.0742 9.13041 35.0742 8.96137 35.232C8.74538 35.4371 8.74538 35.8157 8.96137 36.0208C9.13041 36.1786 9.21493 36.1786 26.025 36.1786H42.9102V37.1804C42.9102 38.0797 42.882 38.2217 42.6942 38.5057C42.5721 38.6793 42.3185 38.8922 42.1119 38.9948L41.7363 39.1762H22.1746C0.377918 39.1762 2.23735 39.2236 1.70206 38.6398C1.45789 38.3716 1.4485 38.3164 1.42033 37.2672L1.38276 36.1786H3.36428C5.22372 36.1786 5.35519 36.1707 5.53363 36.0208C5.63693 35.9341 5.72145 35.7605 5.72145 35.6264C5.72145 35.4923 5.63693 35.3188 5.53363 35.232C5.35519 35.0821 5.22372 35.0742 3.37367 35.0742H1.40155V28.014V20.9538H22.1559H42.9102V22.2948ZM45.1452 27.9903L45.164 31.2088H40.5906C37.9047 31.2088 35.8387 31.1694 35.6039 31.1299C34.1295 30.8381 32.9462 29.7889 32.6645 28.5189C32.2888 26.7913 33.8102 25.0558 35.895 24.827C36.2143 24.7876 38.4212 24.7639 40.7972 24.7718L45.1171 24.7797L45.1452 27.9903Z" fill="#4086F4"/>
<path d="M35.7731 25.7579C34.5898 26.0656 33.7071 27.1621 33.8292 28.1718C33.9794 29.4261 35.1063 30.2938 36.562 30.2938C38.9849 30.3017 40.2151 27.9904 38.6374 26.4127C38.5059 26.2786 38.1397 26.0577 37.8204 25.9315C37.3414 25.7264 37.1348 25.6869 36.6277 25.6948C36.2896 25.6948 35.9046 25.7264 35.7731 25.7579ZM37.1254 26.9017C38.1115 27.2488 38.2618 28.4084 37.3884 28.9528C37.0315 29.1815 36.2708 29.2052 35.8858 29.008C34.9373 28.5031 34.9937 27.3198 35.9985 26.9412C36.4587 26.7676 36.7122 26.7598 37.1254 26.9017Z" fill="#4086F4"/>
</svg>
