<svg width="48" height="41" viewBox="0 0 48 41" fill="none" xmlns="http://www.w3.org/2000/svg">
<path d="M1.77208 0.136734C1.50652 0.218689 1.13277 0.439972 0.83771 0.685844C-0.0769883 1.44804 0.0016954 -0.100941 0.0016954 16.9215C0.0016954 33.952 -0.0671528 32.485 0.818039 33.2226C1.71307 33.9684 0.808203 33.9111 13.8107 33.9848L25.2198 34.0504L25.8395 36.0501C26.1739 37.1483 26.5574 38.2138 26.6755 38.4187C26.9902 38.935 27.6197 39.4923 28.2393 39.8037C29.2425 40.3037 29.4589 40.3201 34.5242 40.3201C39.4026 40.3201 39.7075 40.2955 40.6418 39.9021C41.1729 39.6726 41.9598 39.0579 42.2647 38.6154C42.786 37.8778 42.8843 37.4106 42.8843 35.6485V34.0258L44.2416 33.9766C46.012 33.9029 46.5234 33.7717 47.1824 33.2226C48.0676 32.485 47.9987 33.9438 47.9987 16.9624C47.9987 -0.0189857 48.0676 1.43984 47.1824 0.694038C46.2579 -0.076355 48.6085 -0.00259399 23.9609 0.00560379C4.41782 0.00560379 2.1655 0.0219955 1.77208 0.136734ZM46.0907 1.19397C46.2382 1.28413 46.4546 1.46443 46.5628 1.58736C46.7595 1.80045 46.7693 1.93158 46.7988 4.51322L46.8283 7.20959H24.0002H1.18195V4.63615C1.18195 1.96437 1.21146 1.75948 1.60488 1.39886C2.08681 0.964497 0.759026 0.989082 24.1182 1.00547L45.8251 1.02187L46.0907 1.19397ZM46.8185 20.0276C46.8185 28.1987 46.789 31.9359 46.7103 32.0998C46.5628 32.4194 46.1497 32.7637 45.7956 32.8538C45.6284 32.8948 44.9006 32.9604 44.1924 32.985L42.8843 33.0423V31.9523C42.8843 30.6656 42.7663 30.3623 42.0975 29.8952C41.5368 29.4936 40.9369 29.3789 40.1894 29.5428L39.6484 29.6657L39.1763 29.2723C38.5862 28.7806 37.9764 28.6085 37.2879 28.7396C37.042 28.7806 36.7667 28.8461 36.688 28.8789C36.5896 28.9117 36.4913 28.8461 36.3732 28.6904C36.2847 28.5593 36.029 28.3462 35.7929 28.2151C35.4487 28.0266 35.2717 27.9856 34.7799 27.9856C34.4455 27.9856 34.0816 28.0184 33.9537 28.0512L33.7373 28.1167V24.5762C33.7373 21.1504 33.7275 21.0193 33.5308 20.6751C33.098 19.9211 31.9965 19.4785 31.0227 19.6588C30.3146 19.7899 29.7835 20.1342 29.4687 20.6587L29.213 21.093V26.1907V31.2884L28.6131 30.7721C27.7377 30.0099 26.7542 29.6165 25.328 29.469C24.7772 29.4116 24.2953 29.5756 24.0297 29.9034C23.7445 30.2476 23.7445 30.5263 24.0101 31.0344C24.2363 31.4769 24.8854 32.9276 24.8854 33.0013C24.8854 33.0915 2.46056 32.944 2.17533 32.8538C1.82126 32.7391 1.47701 32.4604 1.31965 32.149C1.20162 31.9277 1.18195 29.887 1.18195 20.0358V8.19307H24.0002H46.8185V20.0276ZM31.9079 20.6833C32.5866 20.9209 32.5571 20.7488 32.5571 25.1663C32.5571 30.2968 32.6358 32.5916 32.8226 32.7473C33.039 32.9276 33.5013 32.8866 33.6783 32.6817C33.8062 32.5342 33.8357 32.2146 33.8357 30.9114C33.8357 29.3379 33.8357 29.3297 34.0816 29.133C34.3373 28.9117 34.7897 28.8625 35.1241 29.0182C35.5175 29.1904 35.5864 29.51 35.5274 31.0262C35.488 32.2719 35.4979 32.4686 35.6454 32.6571C35.7831 32.8374 35.8815 32.8702 36.1765 32.8456C36.7076 32.8128 36.7863 32.6243 36.7863 31.2475V30.0919L37.0912 29.8788C37.4945 29.5919 37.8781 29.6001 38.2813 29.9034L38.6059 30.1411L38.6551 31.6818C38.7042 33.2144 38.7042 33.2308 38.9403 33.321C39.2354 33.4439 39.5501 33.3538 39.7075 33.0997C39.7861 32.9768 39.8353 32.5342 39.8353 31.9195C39.8353 30.8131 39.914 30.641 40.4648 30.4853C40.868 30.3787 41.2024 30.4689 41.4975 30.7803C41.7139 31.0098 41.7139 31.0262 41.6844 34.2471L41.6549 37.4926L41.3893 37.9023C41.0549 38.4351 40.3959 38.9432 39.7763 39.1399C39.3239 39.2874 38.9796 39.2956 34.475 39.2956C29.7638 39.2956 29.6458 39.2956 29.2032 39.1235C28.5934 38.8858 27.9934 38.4187 27.7377 37.9925C27.6295 37.7958 27.1869 36.4927 26.7542 35.0912C26.0558 32.821 25.5149 31.354 25.1215 30.7229C25.0526 30.6 25.0133 30.4853 25.0428 30.4689C25.1411 30.3869 26.0952 30.5672 26.6361 30.7721C27.3541 31.0426 27.9049 31.4933 28.6327 32.3867L29.213 33.0997V34.0914C29.213 34.9683 29.2327 35.0912 29.4097 35.2388C29.6556 35.4436 29.813 35.4436 30.1376 35.2306L30.3933 35.0666V28.1823C30.3933 20.757 30.3834 20.9701 30.9047 20.757C31.4162 20.5439 31.4948 20.5439 31.9079 20.6833Z" fill="#FA7436"/>
<path d="M4.5262 2.20183C4.00492 2.29198 3.60167 2.49687 3.21808 2.87387C2.62796 3.44757 2.51977 4.21796 2.95253 4.91459C3.76887 6.23409 6.09004 6.24229 6.90638 4.92279C7.78174 3.52952 6.3556 1.89859 4.5262 2.20183ZM5.58843 3.27546C5.68679 3.27546 6.00152 3.84916 6.00152 4.03766C6.00152 4.82444 4.91962 5.20964 4.21147 4.67692C3.38529 4.06224 4.18196 2.95583 5.26386 3.20989C5.42123 3.24268 5.56876 3.27546 5.58843 3.27546Z" fill="#FA7436"/>
<path d="M10.4272 2.22647C8.76499 2.48053 8.08634 4.29178 9.2666 5.34082C10.0731 6.05384 11.5779 6.09482 12.4238 5.42278C13.2991 4.72615 13.3877 3.61973 12.6205 2.87393C12.0402 2.30843 11.3025 2.08714 10.4272 2.22647ZM11.6566 3.44762C11.9025 3.64432 11.9517 3.75086 11.9517 4.0623C11.9517 4.38193 11.9025 4.47208 11.6271 4.67697C10.919 5.20969 9.83705 4.82449 9.83705 4.03771C9.83705 3.6853 10.1715 3.2919 10.5452 3.20995C10.9976 3.1034 11.3124 3.16897 11.6566 3.44762Z" fill="#FA7436"/>
<path d="M16.4566 2.21881C14.2633 2.56303 13.9584 5.07091 16.0337 5.80032C16.5746 5.98882 17.5877 5.90686 18.0893 5.62821C18.7188 5.2758 19.0236 4.83323 19.063 4.16938C19.0925 3.71862 19.063 3.53832 18.886 3.24327C18.4434 2.47288 17.4598 2.0631 16.4566 2.21881ZM17.686 3.48095C18.0204 3.80877 17.9909 4.36608 17.6172 4.67751C17.3811 4.86601 17.2434 4.91519 16.8894 4.91519C16.1419 4.91519 15.6501 4.40706 15.8468 3.81697C16.0828 3.12853 17.1156 2.94003 17.686 3.48095Z" fill="#FA7436"/>
<path d="M25.4755 3.49699C25.0821 3.61172 24.9542 4.06249 25.2591 4.28377C25.4263 4.4149 26.2623 4.4231 35.2913 4.4231H45.1464L45.3038 4.2182C45.5103 3.95594 45.4218 3.6609 45.0973 3.53796C44.9104 3.4642 42.3827 3.43962 35.2323 3.44781C29.9506 3.44781 25.5542 3.4724 25.4755 3.49699Z" fill="#FA7436"/>
<path d="M11.5485 13.2494C10.7518 14.0525 10.083 14.7246 10.0732 14.741C10.0535 14.7574 9.7978 14.5934 9.4929 14.3886C9.188 14.1837 8.87327 14.0116 8.80442 14.0116C8.72574 14.0116 8.5487 14.0935 8.40117 14.2001C7.99791 14.4869 8.12577 14.7246 9.01097 15.3147C9.73879 15.8064 10.0437 15.8966 10.4666 15.7654C10.742 15.6753 13.8697 12.4872 13.8697 12.2905C13.8697 11.9626 13.6926 11.7987 13.3386 11.7987C13.0238 11.7987 12.9058 11.8971 11.5485 13.2494Z" fill="#FA7436"/>
<path d="M6.28629 12.2504C5.82402 12.4634 5.79452 12.6437 5.82402 15.3565L5.85353 17.8808L6.12892 18.0775L6.40432 18.2742H9.55167H12.699L12.9351 18.0693C13.1711 17.8808 13.181 17.8316 13.181 16.8153C13.181 15.8974 13.1613 15.7417 13.0039 15.627C12.758 15.4385 12.4335 15.4549 12.1974 15.6516C12.0302 15.7909 12.0007 15.922 12.0007 16.5531V17.2907H9.49265H6.98461L7.00428 15.2172L7.03379 13.1519L8.41075 13.1273C9.66969 13.1109 9.79755 13.0945 9.96476 12.9388C10.191 12.7011 10.1811 12.57 9.88607 12.3323C9.65002 12.1356 9.62051 12.1274 8.09602 12.1274C6.94527 12.1356 6.47317 12.1602 6.28629 12.2504Z" fill="#FA7436"/>
<path d="M19.1806 12.5124C18.6986 12.6599 18.5413 13.0615 18.8658 13.2992C19.033 13.4303 20.0067 13.4385 30.8159 13.4385C41.3792 13.4385 42.589 13.4221 42.7267 13.3073C42.8939 13.1762 42.9332 12.8894 42.8053 12.7255C42.766 12.6763 42.6086 12.5861 42.4611 12.5452C42.166 12.455 19.4756 12.4222 19.1806 12.5124Z" fill="#FA7436"/>
<path d="M18.8856 16.7163C18.6397 16.9212 18.6298 17.2245 18.8659 17.3966C19.0331 17.5277 20.0068 17.5359 30.8061 17.5359C42.0677 17.5359 42.5694 17.5277 42.7169 17.3884C42.9431 17.1835 42.9234 16.913 42.6874 16.7163C42.4907 16.5524 42.3628 16.5524 30.7865 16.5524C19.2101 16.5524 19.0823 16.5524 18.8856 16.7163Z" fill="#FA7436"/>
<path d="M11.647 23.5767C10.8995 24.3307 10.2307 25.0027 10.1717 25.0683C10.0733 25.1748 9.99466 25.1503 9.63075 24.9044C8.89309 24.4045 8.60786 24.3635 8.27345 24.6995C8.0374 24.9372 8.23411 25.224 9.01111 25.7322C9.88647 26.314 10.2405 26.3714 10.7126 25.9944C10.8799 25.8715 11.647 25.1257 12.4339 24.3389C13.919 22.8555 14.0665 22.626 13.7125 22.3391C13.6338 22.2654 13.4371 22.208 13.2895 22.208C13.0535 22.208 12.8174 22.4047 11.647 23.5767Z" fill="#FA7436"/>
<path d="M6.53265 22.5925C6.41463 22.6089 6.21792 22.7154 6.09006 22.8302L5.854 23.0433V25.6495V28.2557L6.09006 28.4688L6.32611 28.6819H9.5128H12.6995L12.9355 28.477C13.1716 28.2885 13.1814 28.2393 13.1814 27.2149C13.1814 26.2068 13.1716 26.1412 12.965 26.0265C12.6601 25.8462 12.4339 25.8626 12.1979 26.0757C12.0307 26.2232 12.0012 26.3625 12.0012 26.9772V27.6984H9.49313H6.98508L7.00475 25.6249L7.03426 23.5596L8.4309 23.535C9.80786 23.5186 9.83737 23.5104 9.99473 23.3055C10.2013 23.0515 10.0636 22.7318 9.68 22.6171C9.44395 22.5351 6.96541 22.5187 6.53265 22.5925Z" fill="#FA7436"/>
<path d="M18.856 23.0928C18.6495 23.2813 18.6396 23.5189 18.8265 23.732C18.9642 23.8795 19.1412 23.8877 22.7902 23.9123C24.8852 23.9205 26.7047 23.9123 26.8227 23.8877C27.3243 23.7894 27.5112 23.3386 27.167 23.0846C26.9998 22.9616 26.567 22.9452 22.9967 22.9452C19.2593 22.9452 19.0035 22.9534 18.856 23.0928Z" fill="#FA7436"/>
<path d="M37.0223 23.15C36.8354 23.3876 36.9141 23.6417 37.2289 23.8138C37.4157 23.9204 37.8583 23.9286 40.032 23.9122C42.4515 23.8876 42.6187 23.8794 42.7466 23.7319C42.9334 23.5106 42.9236 23.2401 42.7072 23.0844C42.5498 22.9615 42.2056 22.9451 39.8549 22.9451H37.1797L37.0223 23.15Z" fill="#FA7436"/>
<path d="M19.0824 27.0187C18.689 27.1335 18.5612 27.5842 18.8661 27.8055C19.0136 27.9202 19.2792 27.9448 20.3217 27.9448C21.7282 27.9448 21.8364 27.912 21.8364 27.4859C21.8364 27.0433 21.5807 26.9613 20.3119 26.9695C19.7218 26.9695 19.1611 26.9941 19.0824 27.0187Z" fill="#FA7436"/>
</svg>
