<?xml version="1.0" standalone="no"?>
<!DOCTYPE svg PUBLIC "-//W3C//DTD SVG 20010904//EN"
 "http://www.w3.org/TR/2001/REC-SVG-20010904/DTD/svg10.dtd">
<svg version="1.0" xmlns="http://www.w3.org/2000/svg"
 width="189.000000pt" height="100.000000pt" viewBox="0 0 189.000000 100.000000"
 preserveAspectRatio="xMidYMid meet">

<g transform="translate(0.000000,100.000000) scale(0.100000,-0.100000)"
fill="#000000" stroke="none">
<path d="M1300 971 c-25 -15 -51 -39 -59 -53 -11 -22 -11 -29 4 -51 9 -15 25
-29 36 -32 49 -16 49 -17 49 -337 -1 -234 2 -303 12 -310 23 -14 33 -3 36 40
4 50 16 53 37 12 11 -21 23 -30 41 -30 36 0 41 26 10 55 -14 13 -26 29 -26 35
0 6 12 22 26 35 31 29 26 55 -10 55 -17 0 -30 -10 -43 -30 -9 -17 -20 -30 -24
-30 -8 0 -12 431 -4 462 4 13 20 30 36 38 17 8 38 27 47 42 15 26 15 29 -4 55
-12 16 -31 33 -43 39 -13 7 -28 17 -34 23 -17 17 -38 13 -87 -18z m17 -29
c-21 -23 -22 -66 -2 -82 21 -17 12 -24 -14 -11 -48 26 -47 81 2 101 31 12 32
12 14 -8z m123 -26 c14 -26 14 -28 -13 -52 -15 -13 -33 -24 -39 -24 -7 0 -4 6
6 13 24 17 24 62 0 88 -17 19 -17 20 7 11 13 -5 31 -21 39 -36z m-59 7 c13
-15 12 -15 -9 -2 -21 13 -25 12 -38 -5 -8 -11 -14 -15 -14 -10 0 14 21 34 36
34 6 0 18 -7 25 -17z m-22 -62 c-6 -2 -18 4 -27 13 -15 15 -15 15 10 4 15 -7
23 -15 17 -17z"/>
<path d="M790 514 l0 -305 23 3 22 3 3 303 2 302 -25 0 -25 0 0 -306z"/>
<path d="M236 784 c-7 -19 10 -44 29 -44 16 0 26 25 19 45 -8 20 -40 19 -48
-1z"/>
<path d="M864 786 c-9 -24 4 -48 23 -44 12 2 18 12 18 28 0 29 -32 41 -41 16z"/>
<path d="M861 674 c0 -11 3 -14 6 -6 3 7 2 16 -1 19 -3 4 -6 -2 -5 -13z"/>
<path d="M860 571 c0 -11 4 -22 9 -25 4 -3 6 6 3 19 -5 30 -12 33 -12 6z"/>
<path d="M861 464 c0 -11 3 -14 6 -6 3 7 2 16 -1 19 -3 4 -6 -2 -5 -13z"/>
<path d="M240 295 c0 -84 1 -86 23 -83 21 3 22 8 22 83 0 75 -1 80 -22 83 -22
3 -23 1 -23 -83z"/>
<path d="M326 358 c-23 -33 -20 -43 21 -77 l37 -30 -37 6 c-40 6 -48 -5 -21
-31 18 -19 65 -21 82 -4 7 7 12 25 12 40 0 22 -8 33 -30 46 -38 22 -38 33 0
26 33 -7 39 5 14 30 -22 23 -60 20 -78 -6z"/>
<path d="M645 368 c-29 -17 -35 -28 -35 -75 0 -62 23 -82 94 -81 l56 1 0 78 0
79 -27 0 c-16 0 -37 2 -48 5 -11 3 -29 0 -40 -7z m63 -74 c2 -22 -2 -33 -13
-38 -25 -9 -35 2 -35 40 0 31 3 35 23 32 17 -2 23 -11 25 -34z"/>
<path d="M867 373 c-4 -3 -7 -42 -7 -85 0 -77 0 -78 25 -78 25 0 25 1 25 85 0
76 -2 85 -18 85 -10 0 -22 -3 -25 -7z"/>
<path d="M956 364 c-9 -8 -16 -24 -16 -35 0 -18 9 -28 55 -64 19 -15 18 -15
-17 -9 -31 5 -38 3 -38 -10 0 -31 73 -49 98 -24 7 7 12 22 12 35 0 22 -8 32
-55 68 -19 15 -18 15 18 9 41 -7 47 3 19 29 -23 21 -56 22 -76 1z"/>
<path d="M1150 371 c-8 -6 -27 -7 -42 -4 l-28 6 0 -82 c0 -80 0 -81 25 -81 24
0 25 3 25 60 0 46 3 60 15 60 10 0 15 -15 17 -57 3 -51 6 -58 25 -61 20 -3 22
1 25 55 2 44 7 58 18 58 11 0 16 -14 18 -58 3 -54 5 -58 25 -55 20 3 22 10 25
65 2 52 0 65 -18 83 -14 14 -27 19 -38 14 -21 -9 -42 -9 -62 -1 -8 4 -22 3
-30 -2z"/>
<path d="M1553 368 c-28 -13 -47 -60 -39 -93 16 -63 94 -87 138 -43 l21 21
-23 9 c-14 5 -28 4 -36 -3 -15 -12 -44 -5 -44 11 0 5 22 10 50 10 47 0 50 2
50 25 0 14 -11 37 -25 50 -25 26 -56 31 -92 13z m65 -45 c2 -8 -6 -13 -22 -13
-25 0 -33 10 -19 24 10 10 36 3 41 -11z"/>
<path d="M60 362 c0 -4 11 -39 23 -78 20 -59 27 -69 49 -72 24 -3 28 2 48 65
13 37 25 74 28 81 2 7 -5 12 -21 12 -22 0 -28 -7 -39 -47 l-14 -48 -13 48
c-11 39 -18 47 -37 47 -13 0 -24 -4 -24 -8z"/>
<path d="M450 306 c0 -75 14 -96 64 -96 49 0 66 25 66 98 0 59 -1 62 -25 62
-22 0 -24 -4 -27 -55 -2 -30 -7 -55 -13 -55 -5 0 -11 25 -13 55 -3 51 -5 55
-27 55 -24 0 -25 -3 -25 -64z"/>
<path d="M1690 363 c0 -5 9 -40 21 -79 l21 -72 -31 -94 c-37 -112 -38 -120 -8
-116 19 3 30 26 84 186 l62 182 -29 0 c-25 0 -29 -4 -35 -40 -8 -47 -20 -45
-29 5 -6 29 -11 35 -31 35 -14 0 -25 -3 -25 -7z"/>
</g>
</svg>
